<svg width="112" height="80" viewBox="0 0 112 80" fill="none" xmlns="http://www.w3.org/2000/svg">
<mask id="mask0_1_299" style="mask-type:alpha" maskUnits="userSpaceOnUse" x="0" y="0" width="112" height="80">
<rect width="112" height="80" fill="#D9D9D9"/>
</mask>
<g mask="url(#mask0_1_299)">
<path d="M51.79 11.1532C51.9558 8.41409 52.1554 5.11588 44.8824 0.837646C48.225 6.63139 46.7818 8.30408 44.994 10.3762C43.785 11.7774 42.4184 13.3613 42.2677 16.5259C38.714 16.3644 38.164 14.7359 37.5063 12.7884C36.6431 10.2325 35.5944 7.12705 27.3265 6.06707C32.394 10.0329 31.7433 12.1793 30.9703 14.7294C30.4328 16.5026 29.8362 18.4709 31.0618 21.3818C27.6372 22.6864 26.4909 21.4279 25.1051 19.9065C23.3167 17.9432 21.1295 15.542 13.1324 17.6465C19.2729 19.1816 19.4906 21.3606 19.7575 24.0321C19.9452 25.9108 20.1573 28.0332 22.4706 30.3465C19.7136 32.7792 18.1536 32.0432 16.2926 31.1653C13.8674 30.0212 10.9309 28.6358 4.16764 33.7083C10.8086 32.8228 11.8085 34.6923 13.076 37.0621C13.9472 38.6911 14.9449 40.5565 17.9882 41.926C16.3683 45.1658 14.6079 45.1038 12.5241 45.0303C9.80308 44.9344 6.53071 44.819 2.29999 52.0113C8.06033 48.4664 9.74699 49.9152 11.8027 51.6809C13.2129 52.8921 14.7967 54.2525 17.9882 54.2525C17.8279 57.7808 16.2214 58.3482 14.2923 59.0294C11.7286 59.9347 8.59515 61.0412 7.5294 69.5672C11.5728 64.176 13.7249 64.8638 16.3418 65.7002C16.9712 65.9014 17.6276 66.1111 18.3437 66.247C20.0873 65.3576 22.0057 64.7616 24.0343 64.5241C24.3596 63.9679 24.7347 63.4444 25.1537 62.9598C22.2745 58.5186 20.603 53.2204 20.603 47.5289C20.603 31.8406 33.303 19.1406 48.9912 19.1406C62.9511 19.1406 74.5449 29.1965 76.9301 42.4656C79.746 44.5991 82.1443 47.2548 83.9814 50.2883C84.4438 50.266 84.9264 50.296 85.4315 50.3273C88.1015 50.4932 91.4013 50.6981 95.6825 43.4201C89.8888 46.7626 88.2161 45.3194 86.144 43.5317C84.7427 42.3227 83.1588 40.9561 79.9942 40.8054C80.1558 37.2516 81.7843 36.7017 83.7318 36.044C86.2877 35.1808 89.3931 34.1321 90.4531 25.8642C86.5073 30.906 84.4912 30.2874 81.989 29.5197C80.2274 28.9793 78.2248 28.3649 75.1384 29.5995C74.0071 26.2057 75.2531 25.0493 76.7287 23.6801C78.6635 21.8846 80.9929 19.723 78.8737 11.67C77.3385 17.8106 75.1596 18.0283 72.4881 18.2952C70.6093 18.4829 68.487 18.6949 66.1736 21.0083C63.741 18.2513 64.4769 16.6913 65.3548 14.8303C66.499 12.405 67.8843 9.46857 62.8119 2.7053C63.6973 9.34624 61.8278 10.3461 59.4581 11.6136C57.8291 12.4849 55.9637 13.4826 54.5942 16.5259C51.5615 14.9297 51.6663 13.1971 51.79 11.1532Z" fill="#FFD600"/>
<path d="M72.0066 39.4796C68.695 29.9286 59.6186 23.0716 48.9407 23.0716C35.4612 23.0716 24.5339 33.9989 24.5339 47.4784C24.5339 52.2625 25.9104 56.7251 28.2889 60.4918C29.6186 59.8079 31.1143 59.4006 32.7006 59.3466C35.2077 46.5064 46.5184 36.8162 60.0923 36.8162C64.355 36.8162 68.3937 37.7715 72.0066 39.4796Z" fill="#FFD600"/>
<path d="M24.7748 95.8171C17.3539 95.3707 11.4742 89.2339 11.4742 81.729C11.4742 74.1034 17.5448 67.8901 25.1345 67.6238C26.1074 64.6106 28.9443 62.4302 32.2925 62.4302C33.1261 62.4302 33.9281 62.5653 34.6775 62.8149C35.6623 49.7124 46.6458 39.3867 60.0502 39.3867C72.1178 39.3867 82.2233 47.7555 84.8375 58.985C85.0557 58.9774 85.2748 58.9736 85.4949 58.9736C95.715 58.9736 104 67.2272 104 77.4084C104 87.5896 95.715 95.8432 85.4949 95.8432H55.1348L24.7748 95.8171Z" fill="white"/>
</g>
</svg>
